<mxfile host="app.diagrams.net" modified="2024-03-27T00:07:50.163Z" agent="Mozilla/5.0 (X11; Linux x86_64; rv:123.0) Gecko/20100101 Firefox/123.0" version="24.2.0" etag="Y514ScksjNnOXHN7C0xh" type="github">
  <diagram name="Page-1" id="gFgDW86m4Vnm-cJDtXbq">
    <mxGraphModel>
      <root>
        <mxCell id="0" />
        <mxCell id="1" parent="0" />
      </root>
    </mxGraphModel>
  </diagram>
</mxfile>
